<?xml version="1.0" encoding="UTF-8" standalone="no"?>
<svg width="30px" height="21px" viewBox="0 0 30 21" version="1.1" xmlns="http://www.w3.org/2000/svg" xmlns:xlink="http://www.w3.org/1999/xlink" xmlns:sketch="http://www.bohemiancoding.com/sketch/ns">
    <!-- Generator: Sketch 3.1 (8751) - http://www.bohemiancoding.com/sketch -->
    <title>wh-washing-30deg-permanent-press</title>
    <desc>Created with Sketch.</desc>
    <defs></defs>
    <g id="Page-1" stroke="none" stroke-width="1" fill="none" fill-rule="evenodd" sketch:type="MSPage">
        <g id="wh-washing-30deg-permanent-press" sketch:type="MSLayerGroup" fill="#000000">
            <g id="Group" sketch:type="MSShapeGroup">
                <rect id="Rectangle-path" x="10" y="19" width="10" height="2"></rect>
                <path d="M26.609,1.951 C26.076,1.845 25.741,1.534 25.353,1.146 C24.843,0.636 24.207,0 23,0 C21.793,0 21.157,0.636 20.646,1.146 C20.17,1.623 19.793,2 19,2 C18.207,2 17.83,1.623 17.354,1.146 C16.843,0.636 16.207,0 15,0 C13.793,0 13.157,0.636 12.646,1.146 C12.17,1.623 11.793,2 11,2 C10.207,2 9.83,1.623 9.354,1.146 C8.843,0.636 8.207,0 7,0 C5.793,0 5.157,0.636 4.646,1.146 C4.259,1.534 3.924,1.845 3.391,1.951 L3,0 L0,0 L4,18 L26,18 L30,0 L27,0 L26.609,1.951 L26.609,1.951 Z M24,15 L6,15 L3.588,2.938 C4.424,2.771 4.934,2.273 5.354,1.853 C5.83,1.377 6.207,1 7,1 C7.793,1 8.17,1.377 8.646,1.854 C9.157,2.364 9.793,3 11,3 C12.207,3 12.843,2.364 13.354,1.854 C13.83,1.377 14.207,1 15,1 C15.793,1 16.17,1.377 16.646,1.854 C17.157,2.364 17.793,3 19,3 C20.207,3 20.843,2.364 21.354,1.854 C21.83,1.377 22.207,1 23,1 C23.793,1 24.17,1.377 24.646,1.854 C25.066,2.274 25.576,2.772 26.412,2.939 L24,15 L24,15 Z" id="Shape"></path>
            </g>
        </g>
    </g>
</svg>